<?xml version="1.0" encoding="UTF-8"?>
<svg id="Layer_2" data-name="Layer 2" xmlns="http://www.w3.org/2000/svg" viewBox="0 0 439.5 110.8">
  <defs>
    <style>
      .cls-1 {
        fill: #fff;
      }

      .cls-2 {
        fill: #31006b;
      }
    </style>
  </defs>
  <g id="Layer_1-2" data-name="Layer 1">
    <g>
      <g>
        <path class="cls-1" d="M58.9.1H0v61.9c0,5.4,2.1,10.6,4.4,15.3,3.6,7.7,11.3,17.5,20,23.8.6.4,1.2.8,1.7,1.2.2.2.4.2.6.4.4.2.8.6,1.2.8.2.2.4.2.8.4s.6.4,1,.6c.2.2.6.2.8.4.4.2.6.4,1,.6.2.2.6.2.8.4.4.2.6.4,1,.4.2.2.6.2.8.4.4.2.6.2,1,.4.2.2.4.2.8.4s1,.4,1.3.6c4.8,1.9,8.2,2.7,9.4,2.7h0c1.2,0,5.2-1,10.4-3.3l1.2-.6c-.4.2-.2.2-.2.2.4-.2.8-.4,1-.6.2,0,.4-.2.6-.2l1.2-.6,1.2-.6c.2-.2.4-.2.6-.4.4-.2.6-.4,1-.6.2-.2.4-.2.6-.4.4-.2.8-.4,1.2-.8.2-.2.4-.2.6-.4.6-.4,1.2-.8,1.7-1.2,8.6-6.3,16.3-16.1,20-23.8,2.3-5,4.4-10.2,4.4-15.3V.1h-33.2Z"/>
        <path class="cls-2" d="M58.9.1H0v61.9c0,5.4,2.1,10.6,4.4,15.3,3.6,7.7,11.3,17.5,20,23.8.6.4,1.2.8,1.7,1.2.2.2.4.2.6.4.4.2.8.6,1.2.8.2.2.4.2.8.4s.6.4,1,.6c.2.2.6.2.8.4.4.2.6.4,1,.6.2.2.6.2.8.4.4.2.6.4,1,.4.2.2.6.2.8.4.4.2.6.2,1,.4.2.2.4.2.8.4s1,.4,1.3.6c4.8,1.9,8.2,2.7,9.4,2.7h0c1.2,0,5.2-1,10.4-3.3l1.2-.6c-.4.2-.2.2-.2.2.4-.2.8-.4,1-.6.2,0,.4-.2.6-.2l1.2-.6,1.2-.6c.2-.2.4-.2.6-.4.4-.2.6-.4,1-.6.2-.2.4-.2.6-.4.4-.2.8-.4,1.2-.8.2-.2.4-.2.6-.4.6-.4,1.2-.8,1.7-1.2,8.6-6.3,16.3-16.1,20-23.8,2.3-5,4.4-10.2,4.4-15.3V.1h-33.2ZM6.4,14.8c1.2,1,4.4,3.5,8.1,3.6h.2v-7.3h-3.6v-3.5h3.6v-3.6h3.5v3.5h3.5v3.5h-3.5v7.3h.2c3.5,0,6.7-2.5,7.9-3.6v9.8c-1.2-1-4.4-3.5-7.9-3.5h-.2v7.7h3.6v3.5h-3.6v4.2h-3.5v-4.2h-3.6v-3.5h3.5v-7.7h-.2c-3.5,0-6.9,2.5-8.1,3.5v-9.6l.1-.1h0ZM63,74.3s-.2-.4-.2-.6l.2-.2c.4-.2,1-.2,1-.2h0c-.4,0-1.2-.2-1.3-.4-.2-.2-.4-.6-.6-.8v-.2c.2,0,1,.2,1.2.2h.4v-.2h0s-.2,0-.8-.4c-.4-.2-.6-.4-.8-.4-.2-.2-.4-.2-.6-.4,0,0,0-.2-.2-.2.2,0,.8.2,1.2.2h.6s-.8-.2-1.3-.6l-.2-.2c-.4-.4-.8-.6-1-1,0-.2-.2-.8-.2-1h.2c.4.2,1.7,1,2.7,1.5v.4c0,.4.2.6.4.6s.6,0,.8-.2c.6,1,1.7,2.9,2.3,4,.2.4.4.8.6,1,.6,1,1.3,1.5,1.5,1.7,0,0,.2.2.2.6v1.9h-.6c-.2,0-.4,0-.4-.2v-1.2h0l-.2-.2h-.2c0,.2-.2.4,0,.6h0v.4c-.2.2-.4.2-.8,0,0,0-.2,0-.2-.2v-.4c.2-.2.2-.8.2-.8h0s-.4.2-.4.4v.4c-.2,0-.4-.2-.4-.4s.2-1.2.6-1.9h-.2s-.4.4-.6.8c0,.2-.2.4-.2.6v.2s-.2,0-.4-.4c-.4-.4-.4-.8-.4-.8,0-.2.2-.2.4-.4l.2-.2c.2-.2.2-.4.2-.4h0s-.4,0-.8.2c-.2,0-.2.2-.4.2h0s0-.2-.2-.2c0-.2-.2-.2-.2-.4v.2c.2-.2,1-.4,1-.4h-.6c-.9-.2-1.5-.6-1.5-.6M66.2,71.6l.8-1.3c0-.2.2-.2.4-.2s.4,0,.4.2l1.3,2.1v1.6l-1.5-2.7-.8,1.5c0,.2-.2.2-.4.2s-.4,0-.4-.2l-1.7-3.3-.2.4c-.2.2-.4.2-.4.2-.2,0-.2-.2-.2-.4v-2.3h0c0-.2.2-.2.2-.2h.4l1.7,1.3q.2.2.2.4c0,.2-.2.4-.4.4h-.6l1.2,2.3ZM69.9,68s-.2-.2-.2-.6c0-.6.4-1.3.6-1.3.4,1.2,1,1.5,1,1.5h0s.2-.2.4-.6c.2-.4,0-.8,0-1,.2.2.6.6.8,1v.8h0c.2,0,.6-.4.6-.8,0,0,.2.2.2.4s.2.4,0,.8c-.2.4-.6.8-.8.8h-3.1c-.4-.2-.8-.8-1-1.2v-.8c0,.2.2.4.4.6.5.4.9.4,1.1.4h0M76.4,69.1c-.2,0-.4-.2-.4-.4s0-.4.2-.4l1.7-1.3c.2,0,.2-.2.4,0,.2,0,.2.2.2.2h0v2.3c0,.2-.2.4-.2.4-.2,0-.4,0-.4-.2l-.2-.4-1.7,3.3c0,.2-.2.2-.4.2s-.4,0-.4-.2l-.8-1.5-1.5,2.9v-1.6l1.3-2.3c0-.2.2-.2.4-.2s.4,0,.4.2l.8,1.3,1.3-2.5-.7.2ZM69.5,71.4h2.9c.2,1,.4,4,.4,7.1,0,3.3-.4,6.9-.6,7.3v.2h-2.9v-.2s-.6-3.6-.6-7.3c.4-3.2.8-6.3.8-7.1M68.7,70.3c0-.4.4-.8.8-.8h3.3c.4,0,.8.4.8.8s-.4.8-.8.8h-3.3c-.4-.3-.8-.5-.8-.8M69.5,86.2h3.3c.4,0,.8.4.8.8s-.4.8-.8.8h-3.3c-.4,0-.8-.4-.8-.8s.4-.8.8-.8M68.5,84.1l-2.9,2.5.4.2c.2,0,.2.2.2.4s-.2.4-.4.4l-2.1.6h0q-.2,0-.4-.2v-.4l.8-2.1c0-.2.2-.2.4-.2s.4.2.4.4l.2.6,2.1-1.9-1.5-.4c-.2,0-.2-.2-.4-.4,0-.2,0-.4.2-.4l2.7-2.7s.2,0,.2-.2h.2v1h0l-1.9,1.9,1.5.4c.2,0,.4.2.4.4.1-.3-.1-.1-.1.1M73.5,90c0-.2-.2-.4-.4-.6-.4-.4-.8-.4-.8-.4h0s.2.2.2.6c0,.6-.4,1.3-.6,1.3-.4-1.2-1-1.5-1-1.5h0s-.2.2-.4.6c-.2.4,0,.8,0,1-.2-.2-.6-.6-.8-1v-.8h0c-.2,0-.6.4-.6.8,0,0-.2-.2-.2-.4s-.2-.4,0-.8c.2-.4.6-.8.8-.8h3.1c.4.2.8.8,1,1.2-.3.2-.3.6-.3.8M78.5,87.9s-.2.2-.4.2h0l-2.1-.6c-.2,0-.4-.2-.4-.4s0-.4.2-.4l.4-.2-2.9-2.5q-.2-.2-.2-.4c0-.2.2-.2.4-.4l1.5-.4-1.9-1.9h0v-1h.2s.2,0,.2.2l2.7,2.7q.2.2.2.4c0,.2-.2.2-.4.4l-1.3.2,2.1,1.9.2-.6c0-.2.2-.4.4-.4s.4.2.4.2l.8,2.1c.1.5.1.7-.1.9M81.8,69.1c-.2.4-.4.6-1,1l-.2.2c-.6.4-1.3.6-1.3.6h.6c.4,0,.8-.2,1.2-.2,0,0,0,.2-.2.2,0,0-.2.2-.6.4-.2.2-.4.2-.8.4-.6.4-.8.4-.8.4h-.2v.2h.4c.2,0,.8-.2,1-.2v.2c0,.2-.2.6-.6.8-.2.2-1.2.4-1.3.4h0s.6,0,1,.2l.2.2c0,.2,0,.4-.2.6,0,0-.6.4-1,.4h-.6s.8.2,1,.4v.2c0,.2-.2.2-.2.4l-.2.2h0s-.2,0-.4-.2c-.4-.2-.8-.2-.8-.2h0s0,.2.2.4l.2.2c.2.2.4.4.4.4,0,.2,0,.4-.4.8l-.2,1v-.2c0-.2,0-.4-.2-.6-.2-.4-.6-.8-.6-.8h0c.2,1,.6,1.9.6,1.9,0,.2-.4.4-.4.4v-.4c-.2-.2-.4-.4-.4-.4h0s0,.4.2.8c0,.2.2.2,0,.4l-.2.2c-.2.2-.6,0-.8,0q-.2-.2,0-.4h0c.2-.4,0-.4,0-.6h-.2c-.2,0-.2.2-.2.2h0c0,.2.2,1,0,1.2,0,.2-.2.2-.4.2h-.6v-1.9c0-.4,0-.6.2-.6s1-.6,1.5-1.7c.2-.2.4-.6.6-1,.6-1.2,1.7-3.3,2.3-4,.2.2.4.4.8.2.2,0,.4-.4.4-.6v-.4c1-.4,2.3-1.3,2.7-1.5h.2c-.5-.7-.7-.2-.7.2M90,61.2l-1.2.6c-.4.2-.8.6-1,.8l-.2.2h0l-.6.8-.6-.8s-1.5-1.9-4.6-1.9c-1.5,0-2.7.6-3.6,1-.4.2-.8.6-1,.8-.2,0-.2.2-.2.2h0l-.6.8-.6-.8s-1.5-1.9-4.6-1.9c-1.5,0-2.7.6-3.5,1-.4.2-.6.6-.8.6l-.2.2h0l-.6.8-.6-.8s-1.5-1.9-4.6-1.9c-1.7,0-2.7.2-3.3.4q-.4.2-.6.2h0c-.2.2-.6,1.3-.6,3.8,0,1.5.6,2.7,1,3.5.2.4.6.8.8,1,0,.2.2.2.2.2h0l.8.6-.8.6h0s-1.9,1.5-1.9,4.6c0,1.5.6,2.7,1,3.5.2.4.6.8.8,1l.2.2h0l.8.6-.8.6c-.2,0-1.9,1.7-1.9,4.8,0,1.5.6,2.7,1,3.5.2.4.6.8.8,1l.2.2h0l.8.6-.8.6s-1.9,1.7-1.9,4.8c0,1.5.6,2.7,1,3.5.2.4.6.8.8,1l.2.2h0l.8.6-.8.6s-1.2,1.2-1.7,2.9c-5.4,2.5-9.6,3.5-10.7,3.5h0c-1,0-4.6-.8-9.4-2.9-.4-2.3-1.7-3.5-1.9-3.5h0l-.8-.6.8-.6h0l.2-.2c.2-.2.4-.4.8-1,.6-.8,1-1.9,1-3.5,0-3.1-1.9-4.6-1.9-4.8l-.8-.6.8-.6h0l.2-.2c.2-.2.4-.4.8-1,.6-.8,1-1.9,1-3.5,0-3.1-1.9-4.6-1.9-4.8h0l-.8-.6.8-.6h0l.2-.2c.2-.2.4-.4.8-1,.6-.8,1-1.9,1-3.5,0-3.1-1.9-4.6-1.9-4.6l-.8-.6.8-.6h0l.2-.2c.2-.2.4-.4.8-1,.6-.8,1-1.9,1-3.5,0-2.7-.6-3.6-.6-3.8h0c-.2,0-.2-.2-.6-.2-.6-.2-1.5-.4-3.3-.4-3.1,0-4.6,1.9-4.6,1.9l-.6.8-.6-.8h0l-.2-.2c-.2-.2-.4-.4-.8-.6-.8-.6-1.9-1-3.5-1-3.1,0-4.6,1.9-4.6,1.9l-.6.8-1.7-.8h0l-.2-.2c-.2-.2-.6-.4-1-.8-.8-.6-1.9-1-3.6-1-3.1,0-4.6,1.9-4.6,1.9l-.6.8-.6-.8h0l-.2-.2c-.2-.2-.6-.4-1-.8-.6-.4-1.3-.8-2.3-.8v-19.4c1-.2,1.7-.6,2.3-1,.4-.2.8-.6,1-.6s.2-.2.2-.2h0l.6-.8.6.8s1.5,1.9,4.6,1.9c1.5,0,2.7-.6,3.6-1,.4-.2.8-.6,1-.6l.2-.2h0l.6-.8.6.8s1.5,1.9,4.6,1.9c1.5,0,2.7-.6,3.5-1,.4-.2.6-.6.8-.8l.2-.2h0l.6-.8.6.8s1.5,1.9,4.6,1.9c1.7,0,2.7-.2,3.3-.4q.4-.2.6-.2h0c.2-.2.6-1.3.6-3.8,0-1.5-.6-2.7-1-3.5-.2-.4-.6-.8-.8-.8l-.2-.2h0l-.2-1.2.8-.6s1.9-1.5,1.9-4.6c0-1.5-.6-2.7-1-3.5-.2-.4-.6-.8-.8-1l-.2-.2h0l-.8-.6.8-.6h0s1.9-1.7,1.9-4.6c0-1.5-.6-2.7-1-3.5-.2-.4-.6-.8-.8-1,0-.2-.2-.2-.2-.2h0l-.8-1,1-.8s1.9-1.7,1.9-4.8c0-1.5-.6-2.7-1-3.5-.2-.2-.4-.4-.4-.6h22.4c-.2.2-.2.4-.4.6-.6.8-1,1.9-1,3.5,0,3.1,1.9,4.6,1.9,4.8l.8.8-.8.6h0l-.2.2c-.2.2-.4.4-.8,1-.6.8-1,1.9-1,3.5,0,3.1,1.9,4.6,1.9,4.6l.8.6-.8.6h0l-.2.2c-.2.2-.4.4-.8,1-.6.8-1,1.9-1,3.5,0,3.1,1.9,4.6,1.9,4.6h0l.8.6-.8.6h0l-.2.2c-.2.2-.4.4-.8.8-.6.8-1,1.9-1,3.5,0,2.7.6,3.6.6,3.8h0c.2,0,.2.2.6.2.6.2,1.7.4,3.3.4,3.1,0,4.6-1.9,4.6-1.9l.6-.8.6.8h0l.2.2c.2.2.4.4.8.8.8.6,1.9,1,3.5,1,3.1,0,4.6-1.9,4.6-1.9l.6-.8.6.8h0l.2.2c.2.2.6.4,1,.6.8.6,1.9,1,3.6,1,3.1,0,4.6-1.9,4.6-1.9l.6-.8.6.8h0l.2.2c.2.2.6.4,1,.6s.8.4,1.2.6v20.9l.4.1h0ZM64.9,48.4c.2.4.2,1,.2,1.3,0,1-.4,1.7-1.2,2.3-.6.4-2.3,1.5-4.4,1.9-1,.2-1.7.4-2.5.4-.2,0-.4.2-.6.2.2.2.2.4.2.6,0,.6-.4,1-1,1s-1-.4-1-1h0c0-.6.2-1,.6-1.3.2-.2.4-.2.6-.2s.6-.2.8-.2c.8-.2,1.5-.4,2.7-.6,1.9-.4,3.5-1.2,3.8-1.5.6-.4.8-.8.8-1.3,0-.2,0-.6-.2-1-.2-.2-.4-.6-.8-.6-.4-.2-1-.2-1.3-.2h-.4c-.8,0-1.9.6-2.9,1.2,0,0-5.2,5.4-5.8,5.9-.6.8-1.9,2.5-4.4,2.7.2,0,.4.2.4.4s-.2.6-.6.6h-.2l.8,1.7h2.5c.2,0,.6.2.6.6,0,.2-.2.6-.6.6h-10.4c-.2,0-.6-.2-.6-.6,0-.2.2-.6.6-.6h2.5l.8-1.7h-.2c-.2,0-.6-.2-.6-.6,0-.2.2-.4.4-.4h-.2s-3.3-1-5.2-3.6c-.6-.8-2.5-3.5-4.2-3.8-1.2-.2-5.9-.8-5.9-.8-.4,0-.6-.4-.6-.8s.4-.6.8-.6c0,0,1,0,1.9.2-.2,0-.4-.2-.2-.6,0-.2.2-.4.4-.4h0c-.6-.2-1.2-1.2-1.2-1.7,0-.6.2-1.3.2-1.3,0,0,.2.6.6,1,.4.6,1,.6,1,.6,0,0-.2-.2-.2-.8-.2-1,1-1.9,1.2-1.7.2,1.5,1,2.1,1,2.1,0,0,.2,0,.6-.6s.2-1.3.2-1.3c0,0,1,.8,1,1.5q0,1-.2,1c0,.2.8-.2.8-1,0-.2.4,1.2,0,1.5-.4.6-.8,1-1.2,1h0q.2.2.2.4c0,.2-.2.4-.6.4h.6c.8.2,2.5.2,4,.4h1.2c-.2,0-.4-.2-.4-.4,0-.4.2-.6.6-.6h3.6l.8-1.2c-.2,0-.2-.2-.2-.4s.2-.6.6-.6h1.2c-.2-.2-.4-.4-.4-.8s.4-.8.8-.8.8.4.8.8-.2.6-.4.8h1.3c.2,0,.6.2.6.6,0,.2-.2.4-.2.4l.6,1.2h3.8c.2,0,.6.2.6.6,0,.2-.2.4-.4.4h2.5c1,0,1.7-.4,2.3-.8.2-.2.6-.4.8-.6,1-.6,2.1-1.2,3.3-1.3h.4c.6,0,1.2,0,1.7.2.1.6.7,1,1.1,1.8"/>
      </g>
      <g>
        <polygon class="cls-2" points="113.8 .1 113.8 37.8 137.8 37.8 137.8 32.7 119.6 32.7 119.6 .1 113.8 .1"/>
        <g>
          <path class="cls-2" d="M160.6,35c-1.7,1.7-4.4,3.3-8.1,3.3s-6.3-1.3-8.1-3.3c-2.5-2.7-3.3-6.1-3.3-10.6s.6-7.9,3.3-10.6c1.7-1.7,4.4-3.3,8.1-3.3s6.3,1.3,8.1,3.3c2.5,2.7,3.3,6.1,3.3,10.6-.2,4.6-.8,7.9-3.3,10.6M156.4,16.9c-1-1-2.3-1.5-4-1.5-1.5,0-2.9.6-3.8,1.5-1.7,1.7-1.9,4.4-1.9,7.3s.2,5.8,1.9,7.3c1,1,2.3,1.5,3.8,1.5s3.1-.6,4-1.5c1.7-1.7,1.9-4.4,1.9-7.3,0-2.7-.2-5.5-1.9-7.3"/>
          <path class="cls-2" d="M186.1,37.8v-2.7c-1.9,2.1-4.4,3.1-7.1,3.1s-5-1-6.7-2.5c-2.1-2.1-2.7-4.6-2.7-7.7V10.9h5.4v16.4c0,4.2,2.3,5.9,5.4,5.9s5.6-1.9,5.6-5.9V11h5.4v26.9l-5.3-.1h0Z"/>
          <path class="cls-2" d="M207.8,49c-4,0-6.7-1-9.6-3.6l3.5-3.5c1.7,1.5,3.3,2.3,5.8,2.3,4.6,0,6.3-3.3,6.3-6.9v-3.5c-1.9,2.3-4.2,3.1-6.9,3.1s-5-1-6.3-2.3c-2.7-2.7-3.1-6.3-3.1-10.9s.4-8.2,3.1-10.9c1.5-1.5,3.8-2.3,6.5-2.3,2.9,0,5,.8,7.1,3.3v-2.7h5.2v26.7c-.1,6.6-4.3,11.2-11.6,11.2M208.6,15.4c-4.8,0-5.6,4.2-5.6,8.4s.6,8.4,5.6,8.4,5.4-4.2,5.4-8.4c-.1-4.2-.6-8.4-5.4-8.4"/>
          <path class="cls-2" d="M243.1,37.8v-16.3c0-4.2-2.3-5.9-5.4-5.9s-5.6,1.9-5.6,5.9v16.3h-5.4V0h5.4v13.6c1.7-1.9,4.2-3.1,7.1-3.1,2.7,0,5,1,6.7,2.5,2.1,2.1,2.7,4.6,2.7,7.7v17.3h-5.6v-.2h.1Z"/>
          <path class="cls-2" d="M274.8,35.7c-1.5,1.5-3.8,2.3-6.5,2.3-2.9,0-5.2-.8-7.1-3.3v3.1h-5.4V0h5.4v13.6c1.9-2.3,4.2-3.1,7.1-3.1,2.7,0,5,1,6.5,2.3,2.7,2.7,3.1,6.9,3.1,11.3-.1,4.7-.5,8.9-3.1,11.6M266.7,15.4c-5,0-5.6,4.2-5.6,8.8s.8,9,5.6,9,5.6-4.2,5.6-9c.2-4.6-.6-8.8-5.6-8.8"/>
          <path class="cls-2" d="M302,35c-1.7,1.7-4.4,3.3-8.1,3.3s-6.3-1.3-8.1-3.3c-2.5-2.7-3.3-6.1-3.3-10.6s.6-7.9,3.3-10.6c1.7-1.7,4.4-3.3,8.1-3.3s6.3,1.3,8.1,3.3c2.5,2.7,3.3,6.1,3.3,10.6-.2,4.6-.8,7.9-3.3,10.6M297.8,16.9c-1-1-2.3-1.5-4-1.5-1.5,0-2.9.6-3.8,1.5-1.7,1.7-1.9,4.4-1.9,7.3s.2,5.8,1.9,7.3c1,1,2.3,1.5,3.8,1.5s3.1-.6,4-1.5c1.7-1.7,1.9-4.4,1.9-7.3,0-2.7-.2-5.5-1.9-7.3"/>
          <path class="cls-2" d="M326,17.3c-1.2-1.2-2.1-1.7-4-1.7-2.9,0-5.4,2.3-5.4,6.1v16.1h-5.4V10.9h5.4v2.9c1.3-1.9,4.2-3.3,7.1-3.3,2.7,0,4.6.8,6.3,2.5l-4,4.3Z"/>
          <path class="cls-2" d="M351.3,35c-1.7,1.7-4.4,3.3-8.1,3.3s-6.3-1.3-8.1-3.3c-2.5-2.7-3.3-6.1-3.3-10.6s.6-7.9,3.3-10.6c1.7-1.7,4.4-3.3,8.1-3.3s6.3,1.3,8.1,3.3c2.5,2.7,3.3,6.1,3.3,10.6s-.6,7.9-3.3,10.6M347.3,16.9c-1-1-2.3-1.5-4-1.5-1.5,0-2.9.6-3.8,1.5-1.7,1.7-1.9,4.4-1.9,7.3s.2,5.8,1.9,7.3c1,1,2.3,1.5,3.8,1.5s2.9-.6,4-1.5c1.7-1.7,1.9-4.4,1.9-7.3,0-2.7-.2-5.5-1.9-7.3"/>
          <path class="cls-2" d="M377,37.8v-2.7c-1.9,2.1-4.4,3.1-7.1,3.1s-5-1-6.7-2.5c-2.1-2.1-2.7-4.6-2.7-7.7V10.9h5.4v16.4c0,4.2,2.3,5.9,5.4,5.9s5.6-1.9,5.6-5.9V11h5.4v26.9l-5.3-.1h0Z"/>
          <path class="cls-2" d="M398.7,49c-4,0-6.7-1-9.4-3.6l3.5-3.5c1.7,1.5,3.3,2.3,5.8,2.3,4.6,0,6.3-3.3,6.3-6.9v-3.5c-1.9,2.3-4.2,3.1-6.9,3.1s-5-1-6.3-2.3c-2.7-2.7-3.1-6.3-3.1-10.9s.4-8.2,3.1-10.9c1.5-1.5,3.8-2.3,6.5-2.3,2.9,0,5,.8,7.1,3.3v-2.7h5.2v26.7c-.3,6.6-4.7,11.2-11.8,11.2M399.3,15.4c-4.8,0-5.6,4.2-5.6,8.4s.6,8.4,5.6,8.4,5.4-4.2,5.4-8.4c.1-4.2-.5-8.4-5.4-8.4"/>
          <path class="cls-2" d="M434,37.8v-16.3c0-4.2-2.3-5.9-5.4-5.9s-5.6,1.9-5.6,5.9v16.3h-5.4V0h5.4v13.6c1.7-1.9,4.2-3.1,7.1-3.1,2.7,0,5,1,6.7,2.5,2.1,2.1,2.7,4.6,2.7,7.7v17.3h-5.6l.1-.2h0Z"/>
          <path class="cls-2" d="M127.4,91.2c-7.7,0-13.6-5.2-13.6-13v-24.9h5.8v24.7c0,5,3.1,8.2,7.9,8.2s7.9-3.1,7.9-8.2v-24.7h5.8v24.9c-.1,7.8-6.1,13-13.8,13"/>
          <path class="cls-2" d="M164.8,91v-16.3c0-4.2-2.3-5.9-5.4-5.9s-5.6,1.9-5.6,5.9v16.3h-5.4v-26.9h5.4v2.7c1.9-1.9,4.4-3.1,7.1-3.1s5,1,6.7,2.5c2.1,2.1,2.7,4.6,2.7,7.7v17.3h-5.6l.1-.2h0Z"/>
        </g>
        <path class="cls-2" d="M177.3,53h5.8v5.8h-5.8v-5.8ZM177.5,63.9h5.4v26.9h-5.4v-26.9Z"/>
        <polygon class="cls-2" points="200.7 91 196.3 91 186.5 63.9 192.1 63.9 198.6 82.9 204.7 63.9 210.5 63.9 200.7 91"/>
        <g>
          <path class="cls-2" d="M218.2,79.1c0,4.6,2.3,7.5,6.9,7.5,3.1,0,4.6-.8,6.5-2.7l3.5,3.3c-2.7,2.7-5.4,4.2-10.2,4.2-6.7,0-12.1-3.6-12.1-13.8,0-8.8,4.6-13.8,11.3-13.8,7.3,0,11.5,5.2,11.5,13v2.3h-17.4ZM229.5,71.6c-1-2.1-2.7-3.5-5.4-3.5s-4.4,1.3-5.4,3.5c-.6,1.2-.6,1.9-.8,3.6h12.1c.1-1.7.1-2.4-.5-3.6"/>
          <path class="cls-2" d="M256.3,70.3c-1.2-1.2-2.1-1.7-4-1.7-2.9,0-5.4,2.3-5.4,6.1v16.3h-5.4v-26.9h5.4v2.9c1.3-1.9,4.2-3.3,7.1-3.3,2.7,0,4.6.8,6.3,2.5l-4,4.1Z"/>
          <path class="cls-2" d="M272.5,91.2c-4.4,0-8.1-.8-11.3-3.8l3.6-3.6c2.1,2.3,5.2,2.9,7.7,2.9,3.3,0,5.9-1.2,5.9-3.6,0-1.9-1-2.9-3.6-3.3l-4.2-.4c-5.2-.4-7.9-2.7-7.9-7.5,0-5.4,4.4-8.2,10.2-8.2,4,0,7.5.8,10,3.1l-3.5,3.5c-1.7-1.3-4-1.9-6.7-1.9-3.3,0-4.8,1.3-4.8,3.5,0,1.9,1.2,2.9,3.6,3.1l3.8.4c5.6.6,8.4,2.9,8.4,7.7-.1,5.2-4.9,8.1-11.2,8.1"/>
        </g>
        <path class="cls-2" d="M288.8,53h5.8v5.8h-5.8v-5.8ZM289,63.9h5.4v26.9h-5.4v-26.9Z"/>
        <g>
          <path class="cls-2" d="M309.9,91c-5,0-7.3-3.6-7.3-7.5v-15.3h-3.3v-4.2h3.1v-7.7h5.4v7.7h5.2v4.2h-5.2v15c0,1.9,1,3.1,3.1,3.1h2.3v4.6h-3.3v.1h0Z"/>
          <path class="cls-2" d="M327.1,96.4c-.6,1.5-1.2,2.5-1.9,3.3-1.5,1.5-3.5,1.9-5.6,1.9h-2.1v-4.8h1.3c2.3,0,3.1-.8,3.8-2.9l1.5-4.2-9.4-25.7h5.8l6.3,19,6.3-19h5.8l-11.8,32.4Z"/>
        </g>
      </g>
    </g>
  </g>
</svg>