<?xml version="1.0" encoding="UTF-8"?>
<svg id="Layer_2" data-name="Layer 2" xmlns="http://www.w3.org/2000/svg" viewBox="0 0 450 103.8">
  <defs>
    <style>
      .cls-1 {
        fill: #c60067;
      }

      .cls-2 {
        fill: #2f1c5f;
      }
    </style>
  </defs>
  <g id="Layer_1-2" data-name="Layer 1">
    <g>
      <path class="cls-2" d="M163.86,25.97c0-7.78-6.24-12.8-13.82-12.8s-13.31,6.04-13.31,13.41,6.04,12.8,13.41,12.8,13.72-5.84,13.72-13.42M156.9,27c0,4.1-.92,10.65-6.25,10.65-5.94,0-7.07-7.99-7.07-12.39,0-4,1.13-10.34,6.25-10.34,5.74,0,7.07,7.58,7.07,12.08Z"/>
      <path class="cls-2" d="M222.8,17.3v-2.36h-3.99c-1.44,0-2.87-.1-3.89-.51-.61-.21-1.33-.41-1.95-.62-1.02-.41-3.18-.82-4.61-.82-5.12,0-10.96,3.48-10.96,9.22,0,3.48,2.46,6.76,5.73,7.88-1.02.31-2.76,1.23-3.68,2.26-.82.82-1.44,1.74-1.44,2.97,0,2.56,2.66,3.9,4.51,4.2-2.35.71-5.84,2.66-5.84,5.94,0,5.33,6.86,6.76,11.27,6.76,3.28,0,7.38-.82,10.65-3.48,2.25-1.85,3.89-4.2,3.89-7.17,0-5.02-3.79-7.17-8.4-7.17-1.95,0-3.38.1-5.42.1-1.34,0-3.59.2-4.61-.61-.51-.3-.82-.82-.82-1.44,0-.92,1.13-1.63,1.84-1.74.82.21,2.25.41,3.27.41,5.12,0,11.06-3.18,11.06-8.91,0-1.95-.82-4.2-1.64-4.92h5.02M212.97,22.84c0,2.76-.93,6.25-4.2,6.25-3.69,0-4.92-4.92-4.92-7.78,0-2.66,1.03-6.45,4.3-6.45,3.79,0,4.82,5.22,4.82,7.99ZM218.4,43.83c0,2.87-3.79,6.14-9.01,6.14-3.27,0-8.09-1.23-8.09-5.43,0-2.15,1.43-3.69,3.07-4.71.92.11,1.94.21,2.87.21,1.54,0,2.56,0,4.2-.1.51-.11,1.23-.11,1.84-.11,2.66,0,5.12,1.03,5.12,4Z"/>
      <path class="cls-2" d="M282.23,25.19c0-6.45-4.2-11.88-10.96-11.88-3.17,0-6.04,1.74-8.09,3.38V.1h-8.81v.92c1.33,0,2.56.51,2.56,1.95v35.74h1.43l1.64-1.84c1.54.92,4.51,2.46,8.09,2.46,8.5,0,14.13-6.96,14.13-14.13M275.89,28.26c0,5.01-2.15,9.32-5.95,9.32-2.96,0-5.73-1.95-6.75-3.89v-15.46c1.64-1.02,2.66-1.54,4.5-1.54,5.02,0,8.2,5.43,8.2,11.57Z"/>
      <path class="cls-2" d="M312.9,26.01c0-7.78-6.25-12.8-13.83-12.8s-13.31,6.04-13.31,13.41,6.04,12.8,13.41,12.8,13.72-5.83,13.72-13.41M305.94,27.03c0,4.1-.92,10.65-6.25,10.65-5.94,0-7.06-7.99-7.06-12.4,0-3.99,1.13-10.34,6.25-10.34,5.73,0,7.06,7.58,7.06,12.09Z"/>
      <path class="cls-2" d="M361.58,25.91c0-7.78-6.25-12.7-13.83-12.7s-13.31,5.94-13.31,13.31,6.04,12.8,13.42,12.8,13.72-5.84,13.72-13.41M354.52,26.93c0,4.1-.82,10.65-6.14,10.65-5.94,0-7.07-7.99-7.07-12.39,0-4,1.13-10.24,6.25-10.24,5.73,0,6.96,7.48,6.96,11.98Z"/>
      <path class="cls-2" d="M420.23,17.3v-2.36h-3.99c-1.44,0-2.86-.1-3.89-.51-.61-.21-1.33-.41-1.95-.62-1.02-.41-3.18-.82-4.61-.82-5.12,0-10.96,3.48-10.96,9.22,0,3.48,2.46,6.76,5.73,7.88-1.02.31-2.76,1.23-3.69,2.26-.82.82-1.43,1.74-1.43,2.97,0,2.56,2.66,3.9,4.51,4.2-2.35.71-5.94,2.66-5.94,5.94,0,5.33,6.96,6.76,11.37,6.76,3.27,0,7.37-.82,10.65-3.48,2.26-1.85,3.89-4.2,3.89-7.17,0-5.02-3.79-7.17-8.4-7.17-1.94,0-3.38.1-5.43.1-1.33,0-3.58.2-4.61-.61-.52-.3-.82-.82-.82-1.44,0-.92,1.12-1.63,1.85-1.74.82.21,2.25.41,3.27.41,5.12,0,11.06-3.18,11.06-8.91,0-1.95-.82-4.2-1.64-4.92h5.02M410.4,22.84c0,2.76-.92,6.25-4.2,6.25-3.68,0-4.92-4.92-4.92-7.78,0-2.66,1.02-6.45,4.3-6.45,3.79,0,4.81,5.22,4.81,7.99ZM415.83,43.83c0,2.87-3.79,6.14-9.02,6.14-3.28,0-8.09-1.23-8.09-5.43,0-2.15,1.43-3.69,3.07-4.71.92.11,1.95.21,2.87.21,1.54,0,2.55,0,4.2-.1.51-.11,1.13-.11,1.74-.11,2.77,0,5.23,1.03,5.23,4Z"/>
      <path class="cls-2" d="M233.78,83.49l-1.02-.61c-1.33,1.23-3.07,2.76-6.15,2.76s-6.14-1.63-7.78-4.3c-1.74-2.87-1.74-5.43-1.84-7.48h13.93c1.02,0,2.56-.2,2.56-1.53,0-1.23-1.33-7.79-9.11-7.79-6.86,0-12.49,5.63-12.49,13.31,0,7.27,4.81,12.6,11.16,12.6,5.02,0,8.7-4.1,10.75-6.96M227.74,70.27c0,1.54-1.12,1.85-2.15,1.85h-8.4c.92-4.4,4.5-5.84,6.45-5.84,2.36,0,4.1,2.15,4.1,3.99Z"/>
      <path class="cls-2" d="M286.88,53.89c0-1.94-1.54-3.38-3.48-3.38-1.74,0-3.18,1.44-3.18,3.38s1.44,3.29,3.18,3.29c1.95,0,3.48-1.44,3.48-3.29M289.55,89.73v-1.02c-1.95,0-2.76-.92-2.76-2.15v-21.51h-8.71v1.13c1.54,0,2.67.82,2.67,2.05v18.33c0,1.23-1.02,2.15-2.67,2.15v1.02h11.47Z"/>
      <path class="cls-2" d="M182.33,53.89c0-1.94-1.44-3.38-3.27-3.38-1.95,0-3.38,1.44-3.38,3.38s1.43,3.29,3.38,3.29c1.84,0,3.27-1.44,3.27-3.29M186.52,89.73v-1.02c-1.94,0-4.3-.92-4.3-2.15v-21.51h-8.7v1.13c1.54,0,2.66.82,2.66,2.05v18.33c0,1.23-1.02,2.15-2.66,2.15v1.02h13.01Z"/>
      <path class="cls-2" d="M133.83,29.18h-1.54c-.3,2.36-.51,4-1.53,5.12-1.13,1.23-3.79,1.95-8.8,1.95-2.67,0-4.41-.41-5.43-1.13-1.23-.82-1.43-2.15-1.43-5.12V5.63c0-3.59.81-4.2,4.09-4.2V.31h-15.05v1.13c3.18,0,4.09.51,4.09,3.69v26.42c0,4.51-1.53,5.84-4.6,5.84v1.23h29.7l.51-9.42"/>
      <path class="cls-2" d="M193.97,38.61v-1.02c-1.84,0-2.55-.62-2.55-2.15V13.72h-9.12v1.02c1.84,0,2.97.62,2.97,2.36v15.88c-1.84,1.43-4.09,2.56-6.14,2.56-1.13,0-2.67-.31-3.48-1.54-.52-.82-.72-2.56-.72-3.99V13.72h-8.91v1.02c1.54,0,2.76.52,2.76,2.05v15.97c0,1.33.41,3.38,1.54,4.61,1.03,1.12,2.67,1.95,4.92,1.95,3.28,0,7.17-2.15,10.03-4.4v3.69h8.7"/>
      <path class="cls-2" d="M252.33,38.61v-1.12c-1.74,0-2.35-.93-2.35-1.64v-12.8c0-3.89-.1-6.25-2.25-8.09-1.43-1.23-3.38-1.74-5.02-1.74-2.15,0-5.63,1.03-9.22,4.3V0h-8.7v1.02c1.33,0,2.56.51,2.56,1.95v31.85c0,1.94-.51,2.66-2.67,2.77v1.02h11.57v-1.02c-1.54,0-2.77-.51-2.77-2.05v-16.59c1.13-.82,3.69-1.94,5.63-1.94,1.64,0,2.97.51,3.68,1.43.92,1.03,1.03,2.15,1.03,5.74v11.37c0,.72-.31,1.95-2.36,1.95v1.12h10.85"/>
      <path class="cls-2" d="M334.7,16.48c0-1.74-1.33-3.27-3.68-3.27-2.66,0-5.43,2.26-6.76,4.4v-3.89h-8.4v1.02c1.54,0,2.46.41,2.46,2.05v18.74c0,.82-.72,2.15-2.66,2.15v1.02h12.49v-1.02c-1.95,0-3.79-.41-3.79-2.77v-13.32c0-2.45,1.22-4.1,3.07-4.1.61,0,1.02.1,1.94.92,1.03.82,1.74,1.03,2.45,1.03,1.85,0,2.87-1.43,2.87-2.97"/>
      <path class="cls-2" d="M391.66,38.61v-1.02c-1.84,0-2.56-.62-2.56-2.15V13.72h-9.11v1.02c1.85,0,2.97.62,2.97,2.36v15.88c-1.84,1.43-4.1,2.56-6.14,2.56-1.13,0-2.67-.31-3.48-1.54-.51-.82-.72-2.56-.72-3.99V13.72h-8.91v1.02c1.54,0,2.77.52,2.77,2.05v15.97c0,1.33.41,3.38,1.54,4.61,1.02,1.12,2.66,1.95,4.92,1.95,3.28,0,7.17-2.15,10.04-4.4v3.69h8.7"/>
      <path class="cls-2" d="M450,38.61v-1.12c-1.74,0-2.36-.93-2.36-1.64v-12.8c0-3.89-.1-6.25-2.26-8.09-1.43-1.23-3.37-1.74-5.02-1.74-2.15,0-5.63,1.03-9.21,4.3V0h-8.7v1.02c1.32,0,2.56.51,2.56,1.95v31.85c0,1.94-.51,2.66-2.66,2.77v1.02h11.57v-1.02c-1.54,0-2.76-.51-2.76-2.05v-16.59c1.13-.82,3.69-1.94,5.63-1.94,1.64,0,2.87.51,3.68,1.43.83,1.03,1.03,2.15,1.03,5.74v11.37c0,.72-.31,1.95-2.36,1.95v1.12h10.86"/>
      <path class="cls-2" d="M142.47,53.07v-1.23h-10.85v1.23c3.07,0,3.89.62,3.89,4.3v20.38c0,3.89-.92,5.93-2.97,7.88-1.84,1.74-4.6,2.67-7.37,2.67-3.79,0-6.66-1.44-8.19-3.48-1.34-1.85-1.84-4.61-1.84-7.37v-20.58c0-3.07,1.02-3.79,3.79-3.79v-1.23h-14.23v1.23c2.46,0,3.48.72,3.48,3.38v20.79c0,4.3.81,7.48,3.07,9.62,3.07,3.17,8.19,3.99,12.18,3.99,4.71,0,8.71-1.23,11.37-3.68,2.66-2.46,3.9-6.14,3.9-11.06v-18.73c0-3.59.92-4.3,3.79-4.3"/>
      <path class="cls-2" d="M170.94,89.73v-1.02c-1.95,0-2.87-1.13-2.87-2.26v-15.26c0-5.02-3.59-6.76-6.66-6.76-3.28,0-7.07,2.05-9.73,4v-3.38h-8.6v1.13c1.44,0,2.56.82,2.56,2.05v18.33c0,1.23-1.03,2.15-2.66,2.15v1.02h11.47v-1.02c-1.94,0-2.77-1.03-2.77-2.15v-16.49c.92-.61,3.49-1.84,5.22-1.84,2.56,0,5.12,1.23,5.12,4.61v13.62c0,1.23-.92,2.26-2.56,2.26v1.02h11.47"/>
      <path class="cls-2" d="M212.66,66.18v-1.02h-9.01v1.02c1.94,0,3.07.2,3.07,1.64,0,.41-.3,1.13-.41,1.64l-4.71,12.19-5.53-12.8c-.1-.2-.31-.72-.31-1.12,0-.93.41-1.54,2.66-1.54v-1.02h-12.9v1.02c1.53,0,2.56.52,3.17,1.74l10.34,22.74h.92l9.32-22.74c.51-1.22,1.74-1.74,3.37-1.74"/>
      <path class="cls-2" d="M255.16,67.61c0-1.73-1.33-3.27-3.68-3.27-2.66,0-5.43,2.25-6.76,4.3v-3.79h-8.4v1.03c1.54,0,2.46.41,2.46,2.04v18.64c0,.82-.71,2.15-2.66,2.15v1.02h12.49v-1.02c-1.94,0-3.79-.41-3.79-2.77v-13.31c0-2.46,1.23-4.09,3.07-4.09.61,0,1.02.2,1.95.92,1.03.92,1.74,1.02,2.46,1.02,1.84,0,2.87-1.43,2.87-2.87"/>
      <path class="cls-2" d="M274.42,82.56c0-3.89-2.97-6.25-6.36-7.99-3.89-1.94-6.14-3.17-6.14-5.42,0-2.05,1.74-3.18,4.3-3.18,3.79,0,5.32,3.89,5.63,5.43h1.23l-.1-6.04c-1.54-.62-4.51-1.03-6.55-1.03-6.86,0-9.32,3.89-9.32,6.96,0,4.3,3.08,6.35,6.86,8.19,3.68,1.64,5.22,3.48,5.22,5.53,0,2.46-1.95,3.79-4.72,3.79-2.25,0-5.62-1.23-6.65-6.04h-1.23v5.95c2.36,1.02,5.63,1.84,8.09,1.84,5.43,0,9.73-3.07,9.73-7.99"/>
      <path class="cls-2" d="M336.76,66.18v-.92h-8.8v.92c1.02.11,2.35.31,2.35,1.94,0,.82-.52,2.15-.82,3.18l-4.4,11.06-4.82-12.29c-.3-.51-.71-1.84-.71-2.15,0-1.02.82-1.63,2.66-1.63v-1.03h-20.62v-6.14h-1.02c-1.23,2.56-3.58,5.52-7.89,6.14v1.03h2.97v18.23c0,2.46,1.33,5.94,6.04,5.94,4,0,7.07-3.38,7.99-4.71l-.83-.72c-1.33,1.23-2.76,1.64-3.79,1.64-2.87,0-3.48-2.25-3.48-4.51v-15.46h8.33c1.54,0,2.36.71,2.87,1.95l9.01,21.81-2.04,5.12c-.62,1.44-1.23,2.46-1.85,2.46s-1.12,0-1.94-.82c-.61-.52-1.74-.92-2.46-.92-1.74,0-2.77,1.13-2.77,2.76,0,1.74,1.44,3.38,3.79,3.38,3.38,0,5.43-2.46,7.27-6.76l10.35-25.5c1.43-3.38,2.86-4,4.6-4"/>
      <path class="cls-2" d="M35.95,51.8V.28H.01v51.37s-.67,16.81,7.2,28.07c3.68,5.25,7.48,12.98,35.66,24.07,28.19-11.09,31.99-18.82,35.66-24.07,7.89-11.26,7.21-27.92,7.21-27.92h-49.8"/>
      <rect class="cls-1" x="49.87" y=".33" width="35.8" height="38.23"/>
    </g>
  </g>
</svg>