<svg xmlns="http://www.w3.org/2000/svg" xmlns:xlink="http://www.w3.org/1999/xlink" viewBox="0 0 1000 600">
<defs>
  <rect id="comnd" fill="none" stroke="black" stroke-width="3" x="-80" y="-60" width="160" height="120" rx="20"/>
  <polygon id="condi" fill="none" stroke="black" stroke-width="3" stroke-linejoin="round" points="0,-70 90,0 0,70 -90,0"/>
  <polyline id="arrdn" fill="none" stroke="black" stroke-width="3" stroke-linejoin="round" points="-10,-20 0,0 10,-20"/>
</defs>
<g id="translatable" font-family="Verdana" text-anchor="middle">
  <switch transform="translate(200,50)" font-size="24">
    <text systemLanguage="sv">PRE-EVALUERANDE SLINGA</text>
    <text systemLanguage="en">PRE-TEST LOOP</text>
    <text>PRE-TEST LOOP</text>
  </switch>
  <switch transform="translate(500,50)" font-size="24">
    <text systemLanguage="sv">OÄNDLIG SLINGA</text>
    <text systemLanguage="en">INFINITE LOOP</text>
    <text>INFINITE LOOP</text>
  </switch>
  <switch transform="translate(800,50)" font-size="24">
    <text systemLanguage="sv">POST-EVALUERANDE SLINGA</text>
    <text systemLanguage="en">POST-TEST LOOP</text>
    <text>POST-TEST LOOP</text>
  </switch>
  <switch transform="translate(200,250)" font-size="20">
    <text systemLanguage="sv">löp-<tspan x="0" y="30">villkor</tspan></text>
    <text systemLanguage="en">run<tspan x="0" y="30">condition</tspan></text>
    <text>run<tspan x="0" y="30">condition</tspan></text>
  </switch>
  <switch transform="translate(800,430)" font-size="20">
    <text systemLanguage="sv">löp-<tspan x="0" y="30">villkor</tspan></text>
    <text systemLanguage="en">run<tspan x="0" y="30">condition</tspan></text>
    <text>run<tspan x="0" y="30">condition</tspan></text>
  </switch>
  <switch transform="translate(200,430)" font-size="20">
    <text systemLanguage="sv">gör<tspan x="0" y="30">jobbet</tspan></text>
    <text systemLanguage="en">do the<tspan x="0" y="30">work</tspan></text>
    <text>do the<tspan x="0" y="30">work</tspan></text>
  </switch>
  <switch transform="translate(500,240)" font-size="20">
    <text systemLanguage="sv">gör<tspan x="0" y="30">jobbet</tspan></text>
    <text systemLanguage="en">do the<tspan x="0" y="30">work</tspan></text>
    <text>do the<tspan x="0" y="30">work</tspan></text>
  </switch>
  <switch transform="translate(800,240)" font-size="20">
    <text systemLanguage="sv">gör<tspan x="0" y="30">jobbet</tspan></text>
    <text systemLanguage="en">do the<tspan x="0" y="30">work</tspan></text>
    <text>do the<tspan x="0" y="30">work</tspan></text>
  </switch>
</g>
<g id="untranslated" font-family="Verdana" font-size="20">
  <text x="105" y="240" text-anchor="end">false</text>
  <text x="215" y="345">true</text>
  <text x="705" y="470" text-anchor="end">true</text>
  <text x="815" y="525">false</text>
</g>
<g id="lines" fill="none" stroke="black" stroke-width="3" stroke-linejoin="round">
  <g id="pre">
    <use x="200" y="90" xlink:href="#arrdn"/>
    <polyline points="200,90 200,190"/>
    <use x="200" y="190" xlink:href="#arrdn"/>
    <use x="200" y="260" xlink:href="#condi"/>
    <polyline points="200,330 200,380"/>
    <use x="200" y="380" xlink:href="#arrdn"/>
    <use x="200" y="440" xlink:href="#comnd"/>
    <polyline points="110,260 80,260 80,560"/>
    <use x="80" y="560" xlink:href="#arrdn"/>
    <polyline points="200,500 200,540 320,540 320,130 200,130"/>
    <g transform="translate(200,130)"><use transform="rotate(90)" xlink:href="#arrdn"/></g>
  </g>
  <g id="infi">
    <use x="500" y="90" xlink:href="#arrdn"/>
    <polyline points="500,90 500,190"/>
    <use x="500" y="190" xlink:href="#arrdn"/>
    <use x="500" y="250" xlink:href="#comnd"/>
    <polyline points="500,310 500,350 380,350 380,130 500,130"/>
    <g transform="translate(500,130)"><use transform="rotate(-90)" xlink:href="#arrdn"/></g>
  </g>
  <g id="post">
    <use x="800" y="90" xlink:href="#arrdn"/>
    <polyline points="800,90 800,190"/>
    <use x="800" y="190" xlink:href="#arrdn"/>
    <use x="800" y="250" xlink:href="#comnd"/>
    <polyline points="800,310 800,370"/>
    <use x="800" y="370" xlink:href="#arrdn"/>
    <use x="800" y="440" xlink:href="#condi"/>
    <polyline points="710,440 680,440 680,130 800,130"/>
    <g transform="translate(800,130)"><use transform="rotate(-90)" xlink:href="#arrdn"/></g>
    <polyline points="800,510 800,560"/>
    <use x="800" y="560" xlink:href="#arrdn"/>
  </g>
</g>
</svg>